<svg version="1.2" baseProfile="tiny-ps" xmlns="http://www.w3.org/2000/svg" viewBox="0 0 75 74" width="75" height="74">
	<title>categories</title>
	<defs>
		<linearGradient id="grd1" gradientUnits="userSpaceOnUse"  x1="37.5" y1="73.148" x2="37.5" y2="0">
			<stop offset="0" stop-color="#9e7a47"  />
			<stop offset="0.498" stop-color="#c8ae80"  />
			<stop offset="0.502" stop-color="#efdcba"  />
			<stop offset="1" stop-color="#c8ae80"  />
		</linearGradient>
		<linearGradient id="grd2" gradientUnits="userSpaceOnUse"  x1="36.994" y1="57.002" x2="36.994" y2="21.006">
			<stop offset="0" stop-color="#8b602a"  />
			<stop offset="0.5" stop-color="#c2a572"  />
			<stop offset="0.502" stop-color="#ceb589"  />
			<stop offset="1" stop-color="#c2a572"  />
		</linearGradient>
	</defs>
	<style>
		tspan { white-space:pre }
		.shp0 { fill: #1c242a;stroke: url(#grd1);stroke-width: 3 } 
		.shp1 { fill: url(#grd2) } 
	</style>
	<g id="categories">
		<g id="round">
			<g id="icons">
				<g id="ROW1">
					<g id="icon2">
						<path id="Ellipse 20" class="shp0" d="M37.5 0C58.21 0 75 16.38 75 36.57C75 56.77 58.21 73.15 37.5 73.15C16.79 73.15 0 56.77 0 36.57C0 16.38 16.79 0 37.5 0Z" />
						<path id="Shape 35" class="shp1" d="M49.12 21.01L48.36 21.01L24.87 21.01L18 30.8L36.99 57L55.99 30.8L49.12 21.01ZM33.94 29.29L37 25.16L40.06 29.29L33.94 29.29ZM40.62 32.27L37 47.56L33.38 32.27L40.62 32.27ZM39.8 23.99L45.61 23.99L42.7 27.91L39.8 23.99ZM31.29 27.91L28.39 23.99L34.2 23.99L31.29 27.91ZM28.65 29.29L22.66 29.29L25.57 25.14L28.65 29.29ZM30.36 32.27L34.07 47.94L22.71 32.27L30.36 32.27ZM43.63 32.27L51.28 32.27L39.93 47.93L43.63 32.27ZM45.35 29.29L48.42 25.15L51.33 29.29L45.35 29.29Z" />
					</g>
				</g>
			</g>
		</g>
	</g>
</svg>