<svg version="1.2" baseProfile="tiny-ps" xmlns="http://www.w3.org/2000/svg" viewBox="0 0 75 74" width="75" height="74">
	<title>categories</title>
	<defs>
		<linearGradient id="grd1" gradientUnits="userSpaceOnUse"  x1="37.5" y1="73.148" x2="37.5" y2="0">
			<stop offset="0" stop-color="#9e7a47"  />
			<stop offset="0.498" stop-color="#c8ae80"  />
			<stop offset="0.502" stop-color="#efdcba"  />
			<stop offset="1" stop-color="#c8ae80"  />
		</linearGradient>
		<linearGradient id="grd2" gradientUnits="userSpaceOnUse"  x1="38" y1="52" x2="38" y2="20">
			<stop offset="0" stop-color="#8b602a"  />
			<stop offset="0.5" stop-color="#c2a572"  />
			<stop offset="0.502" stop-color="#ceb589"  />
			<stop offset="1" stop-color="#c2a572"  />
		</linearGradient>
	</defs>
	<style>
		tspan { white-space:pre }
		.shp0 { fill: #1c242a;stroke: url(#grd1);stroke-width: 3 } 
		.shp1 { fill: url(#grd2) } 
	</style>
	<g id="categories">
		<g id="round">
			<g id="icons">
				<g id="ROW2">
					<g id="icon1">
						<path id="Ellipse 20" class="shp0" d="M37.5 0C58.21 0 75 16.38 75 36.57C75 56.77 58.21 73.15 37.5 73.15C16.79 73.15 0 56.77 0 36.57C0 16.38 16.79 0 37.5 0Z" />
						<path id="Shape 37" class="shp1" d="M60.82 42.78C58.9 43.64 56.58 44.4 53.97 45.02L53.83 22.8C49.99 21.08 44.29 20 37.92 20C31.56 20 25.86 21.08 22.01 22.8L22.01 45.02C19.4 44.4 17.09 43.64 15.18 42.78L13 47.57C19.28 50.35 28.12 51.99 38 52C47.88 51.99 56.72 50.35 63 47.57L60.82 42.78Z" />
					</g>
				</g>
			</g>
		</g>
	</g>
</svg>