<svg version="1.2" baseProfile="tiny-ps" xmlns="http://www.w3.org/2000/svg" viewBox="0 0 75 74" width="75" height="74">
	<title>categories</title>
	<defs>
		<linearGradient id="grd1" gradientUnits="userSpaceOnUse"  x1="37.5" y1="73.148" x2="37.5" y2="0">
			<stop offset="0" stop-color="#9e7a47"  />
			<stop offset="0.498" stop-color="#c8ae80"  />
			<stop offset="0.502" stop-color="#efdcba"  />
			<stop offset="1" stop-color="#c8ae80"  />
		</linearGradient>
		<linearGradient id="grd2" gradientUnits="userSpaceOnUse"  x1="37" y1="49" x2="37" y2="25">
			<stop offset="0" stop-color="#8b602a"  />
			<stop offset="0.5" stop-color="#c2a572"  />
			<stop offset="0.502" stop-color="#ceb589"  />
			<stop offset="1" stop-color="#c2a572"  />
		</linearGradient>
	</defs>
	<style>
		tspan { white-space:pre }
		.shp0 { fill: #1c242a;stroke: url(#grd1);stroke-width: 3 } 
		.shp1 { fill: url(#grd2) } 
	</style>
	<g id="categories">
		<g id="round">
			<g id="icons">
				<g id="ROW2">
					<g id="icon2">
						<path id="Ellipse 20" class="shp0" d="M37.5 0C58.21 0 75 16.38 75 36.57C75 56.77 58.21 73.15 37.5 73.15C16.79 73.15 0 56.77 0 36.57C0 16.38 16.79 0 37.5 0Z" />
						<path id="Shape 35" fill-rule="evenodd" class="shp1" d="M16 27L33 27L33 49L16 49L16 27ZM35 36L45 36L45 27L47 27L47 36L62 36L62 49L35 49L35 36ZM12 25L50 25L50 26L12 26L12 25ZM19 36L30 36L30 30L19 30L19 36ZM38 47L52 47L52 40L38 40L38 47ZM59 47L59 40L53 40L53 47L59 47ZM19 47L30 47L30 40L19 40L19 47Z" />
					</g>
				</g>
			</g>
		</g>
	</g>
</svg>