<svg version="1.2" baseProfile="tiny-ps" xmlns="http://www.w3.org/2000/svg" viewBox="0 0 75 74" width="75" height="74">
	<title>categories</title>
	<defs>
		<linearGradient id="grd1" gradientUnits="userSpaceOnUse"  x1="37.5" y1="73.149" x2="37.5" y2="0">
			<stop offset="0" stop-color="#9e7a47"  />
			<stop offset="0.498" stop-color="#c8ae80"  />
			<stop offset="0.502" stop-color="#efdcba"  />
			<stop offset="1" stop-color="#c8ae80"  />
		</linearGradient>
		<linearGradient id="grd2" gradientUnits="userSpaceOnUse"  x1="37.499" y1="53" x2="37.499" y2="18">
			<stop offset="0" stop-color="#8b602a"  />
			<stop offset="0.5" stop-color="#c2a572"  />
			<stop offset="0.502" stop-color="#ceb589"  />
			<stop offset="1" stop-color="#c2a572"  />
		</linearGradient>
	</defs>
	<style>
		tspan { white-space:pre }
		.shp0 { fill: #1c242a;stroke: url(#grd1);stroke-width: 3 } 
		.shp1 { fill: url(#grd2) } 
	</style>
	<g id="categories">
		<g id="round">
			<g id="icons">
				<g id="ROW3">
					<g id="icon1">
						<path id="Ellipse 20" class="shp0" d="M37.5 0C58.21 0 75 16.38 75 36.57C75 56.77 58.21 73.15 37.5 73.15C16.79 73.15 0 56.77 0 36.57C0 16.38 16.79 0 37.5 0Z" />
						<path id="Shape 39" class="shp1" d="M56.74 44.19L40.15 33.8C40.08 33.76 40.02 33.73 39.95 33.69L39.95 32.76C43.04 31.76 45.26 28.92 45.26 25.57C45.26 21.39 41.79 18 37.5 18C33.21 18 29.74 21.39 29.74 25.57L34.64 25.57C34.64 24.03 35.92 22.79 37.5 22.78C39.08 22.79 40.35 24.03 40.36 25.57C40.35 27.11 39.08 28.36 37.5 28.36C36.85 28.36 36.22 28.62 35.77 29.06C35.31 29.51 35.05 30.13 35.05 30.76L35.05 33.69C34.98 33.73 34.92 33.76 34.85 33.8L18.26 44.19C16.42 45.33 15.59 47.52 16.2 49.56C16.81 51.6 18.73 53 20.9 53L54.1 53C56.27 53 58.19 51.6 58.8 49.56C59.41 47.52 58.57 45.33 56.74 44.19ZM20.9 48.21L37.5 37.83L54.1 48.21L20.9 48.21Z" />
					</g>
				</g>
			</g>
		</g>
	</g>
</svg>