<svg version="1.2" baseProfile="tiny-ps" xmlns="http://www.w3.org/2000/svg" viewBox="0 0 75 74" width="75" height="74">
	<title>categories</title>
	<defs>
		<linearGradient id="grd1" gradientUnits="userSpaceOnUse"  x1="37.5" y1="73.149" x2="37.5" y2="0">
			<stop offset="0" stop-color="#9e7a47"  />
			<stop offset="0.498" stop-color="#c8ae80"  />
			<stop offset="0.502" stop-color="#efdcba"  />
			<stop offset="1" stop-color="#c8ae80"  />
		</linearGradient>
		<linearGradient id="grd2" gradientUnits="userSpaceOnUse"  x1="37" y1="54.999" x2="37" y2="19.001">
			<stop offset="0" stop-color="#8b602a"  />
			<stop offset="0.5" stop-color="#c2a572"  />
			<stop offset="0.502" stop-color="#ceb589"  />
			<stop offset="1" stop-color="#c2a572"  />
		</linearGradient>
	</defs>
	<style>
		tspan { white-space:pre }
		.shp0 { fill: #1c242a;stroke: url(#grd1);stroke-width: 3 } 
		.shp1 { fill: url(#grd2) } 
	</style>
	<g id="categories">
		<g id="round">
			<g id="icons">
				<g id="ROW3">
					<g id="icon2">
						<path id="Ellipse 20" class="shp0" d="M37.5 0C58.21 0 75 16.38 75 36.57C75 56.77 58.21 73.15 37.5 73.15C16.79 73.15 0 56.77 0 36.57C0 16.38 16.79 0 37.5 0Z" />
						<path id="Shape 40" class="shp1" d="M51.53 48.24C51.28 48.05 50.94 47.1 50.94 46.77L50.94 27.23C50.94 26.89 51.28 26.17 51.53 25.98C51.53 25.98 53 24.86 53 23.67C53 22.07 51.55 20.77 49.77 20.77C48.83 20.77 47.87 21.39 47.87 21.39C47.61 21.57 47.12 22.09 46.81 22.09L43.71 22.09C43.4 22.09 43.14 21.57 42.87 21.39C42.87 21.39 41.56 20.53 40.38 20.53C40.13 20.53 40.13 20.53 40.13 20.53C39.87 20.57 39.46 20.41 39.24 20.19C39.24 20.19 38.03 19 36.77 19C35.51 19 34.3 20.2 34.3 20.2C34.07 20.42 33.64 20.58 33.35 20.53C33.35 20.53 33.35 20.53 33.08 20.53C31.9 20.53 30.58 21.39 30.58 21.39C30.32 21.57 29.57 22.09 29.26 22.09L27.19 22.09C26.89 22.09 26.39 21.57 26.13 21.39C26.13 21.39 25.17 20.77 24.23 20.77C22.45 20.77 21 22.07 21 23.67C21 24.86 22.47 25.98 22.47 25.98C22.72 26.17 23.06 26.89 23.06 27.23L23.06 47.8C23.06 48.13 22.72 48.04 22.47 48.24C22.47 48.24 21 49.36 21 50.55C21 52.15 22.45 53.45 24.23 53.45C25.29 53.45 26.35 52.64 26.35 52.64C26.6 52.45 26.88 51.91 27.19 51.91L29.26 51.91C29.57 51.91 30 52.45 30.24 52.65C30.24 52.65 31.72 53.81 33.08 53.81C33.48 53.81 33.69 53.76 33.69 53.76C33.99 53.7 34.44 53.82 34.68 54.03C34.68 54.03 35.82 55 36.97 55C38.07 55 39.18 54.11 39.18 54.11C39.43 53.91 39.85 53.77 40.12 53.81C40.12 53.81 40.12 53.81 40.38 53.81C41.73 53.81 43.21 52.65 43.21 52.65C43.46 52.45 44.43 51.91 44.74 51.91L46.81 51.91C47.12 51.91 47.4 52.45 47.65 52.64C47.65 52.64 48.72 53.45 49.77 53.45C51.55 53.45 53 52.15 53 50.55C53 49.36 51.53 48.24 51.53 48.24ZM46.81 47.8L27.19 47.8L27.19 26.2L46.81 26.2L46.81 47.8Z" />
					</g>
				</g>
			</g>
		</g>
	</g>
</svg>